<svg xmlns="http://www.w3.org/2000/svg" width="146" height="55" viewBox="0 0 146 55">
    <g fill="#000" fill-rule="evenodd">
        <path d="M133.39 49.9c4.2 0 8.4-.456 12.599-1.291-.153.91-.23 1.822-.23 2.734 0 .911.077 1.746.23 2.582a427.95 427.95 0 0 0-14.126-.228c-4.81 0-16.723.076-21.839.228.688-7.67.993-16.177.993-25.898 0-9.722-.153-18.304-.993-25.975 1.451.228 2.978.304 4.43.304 1.526 0 3.054-.076 4.504-.304-.534 7.52-.534 14.203-.534 20.582 0 12.987.076 21.873.305 27.266h14.66zM51.782 26.712c0 15.745 7.086 23.96 20.247 23.96 13.083 0 20.247-8.291 20.247-23.58 0-15.287-7.164-23.654-20.247-23.654-13.005 0-20.247 8.443-20.247 23.274m-8.722.38c0-16.58 10.902-27 28.969-27 18.378 0 28.969 10.04 28.969 27 0 16.886-10.59 26.926-28.891 26.926-18.145 0-29.047-10.497-29.047-26.925M8.022 27.507c.832.075 6.686.075 7.519.075 10.216 0 15.362-3.947 15.362-11.918 0-6.604-4.314-10.552-12.184-10.552-1.135 0-7.973.076-10.319.228-.303 4.859-.378 8.275-.378 10.324v11.843zm0 9.413c0 4.25.075 9.792.378 17.08-1.438-.304-2.724-.38-4.162-.38-1.438 0-2.8.076-4.238.38.606-10.096.908-20.345.908-30.896 0-7.971-.227-14.88-.757-20.952 1.817.152 3.557.228 5.298.228 4.313 0 13.194-.38 16.75-.38C33.174 2 39 6.707 39 15.436c0 9.186-7.492 15.183-20.281 15.183-1.59 0-8.503 0-10.697-.076v6.377z"/>
    </g>
</svg>
